<?xml version="1.0" encoding="UTF-8" standalone="no"?>
<svg width="800px" height="800px" viewBox="0 0 800 800" version="1.1" xmlns="http://www.w3.org/2000/svg">
    <g id="AngelaLogo" fill="#FFFFFF">
        <path d="M400,250 C433.137,250 460,276.863 460,310 C460,343.137 433.137,370 400,370 C366.863,370 340,343.137 340,310 C340,276.863 366.863,250 400,250 Z M400,400 C433.137,400 460,413.432 460,430 C460,446.568 433.137,460 400,460 C366.863,460 340,446.568 340,430 C340,413.432 366.863,400 400,400 Z" />
        
        <!-- Left Wings -->
        <path d="M100,330 C130,290 180,230 220,210 C260,190 310,185 340,190 C370,195 390,240 360,255 C330,270 280,280 230,290 C180,300 130,310 100,330 Z" />
        <path d="M120,360 C150,330 200,290 240,280 C280,270 330,275 360,280 C390,285 400,310 370,320 C340,330 290,335 240,345 C190,355 140,365 120,360 Z" />
        <path d="M150,390 C180,370 230,350 270,340 C310,330 350,325 380,330 C410,335 420,370 390,380 C360,390 310,395 260,405 C210,415 160,425 150,390 Z" />
        <path d="M190,430 C220,410 270,390 310,380 C350,370 390,375 420,380 C450,385 460,420 430,430 C400,440 350,445 300,455 C250,465 200,475 190,430 Z" />
        
        <!-- Right Wings -->
        <path d="M700,330 C670,290 620,230 580,210 C540,190 490,185 460,190 C430,195 410,240 440,255 C470,270 520,280 570,290 C620,300 670,310 700,330 Z" />
        <path d="M680,360 C650,330 600,290 560,280 C520,270 470,275 440,280 C410,285 400,310 430,320 C460,330 510,335 560,345 C610,355 660,365 680,360 Z" />
        <path d="M650,390 C620,370 570,350 530,340 C490,330 450,325 420,330 C390,335 380,370 410,380 C440,390 490,395 540,405 C590,415 640,425 650,390 Z" />
        <path d="M610,430 C580,410 530,390 490,380 C450,370 410,375 380,380 C350,385 340,420 370,430 C400,440 450,445 500,455 C550,465 600,475 610,430 Z" />
    </g>
</svg>